<?xml version="1.0" encoding="UTF-8" standalone="no"?>
<!-- Created with Inkscape (http://www.inkscape.org/) -->

<svg
   version="1.1"
   id="svg1"
   viewBox="0 0 2032.9199 390.75732"
   xmlns="http://www.w3.org/2000/svg"
   xmlns:svg="http://www.w3.org/2000/svg">
  <defs
     id="defs1" />
  <g
     id="g1"
     transform="translate(0,-0.00267644)">
    <g
       id="group-R5">
      <path
         id="path2"
         d="M 14735.2,0 H 511.785 C 229.137,0 0,229.129 0,511.789 V 2418.89 c 0,282.66 229.137,511.79 511.785,511.79 H 14735.2 c 282.6,0 511.7,-229.13 511.7,-511.79 V 511.789 C 15246.9,229.129 15017.8,0 14735.2,0"
         style="fill:#50aee4;fill-opacity:1;fill-rule:nonzero;stroke:none"
         transform="matrix(0.13333333,0,0,-0.13333333,0,390.76)" />
      <path
         id="path3"
         d="m 60.291523,-47.250602 c 3.28125,-1.59375 5.71875,-3.902343 7.546875,-6.703125 1.699219,-2.800781 2.554688,-5.964843 2.554688,-9.621093 0,-14.496094 -7.675781,-21.679688 -23.144531,-21.679688 H 16.557148 c -2.0625,0 -3.890625,0.726563 -5.226562,2.074219 -1.4648438,1.453125 -2.2031251,3.28125 -2.2031251,5.355469 v 70.3945309 c 0,2.0742188 0.7382813,3.9023438 2.2031251,5.2382813 1.335937,1.46484374 3.164062,2.1914062375 5.226562,2.1914062375 h 30.328125 c 7.675782,0 14.25,-1.9453125375 19.734375,-5.7187500375 5.484375,-3.7851562 8.285157,-10.6054684 8.285157,-20.2265624 0,-5.472656 -1.347657,-9.984375 -4.019532,-13.511719 -2.800781,-3.539062 -6.339843,-6.09375 -10.59375,-7.792969 z m -5.730468,-13.652343 c 0,2.8125 -0.855469,5.003906 -2.683594,6.585937 -1.816406,1.582031 -4.019531,2.4375 -6.445313,2.4375 H 24.971211 V -70.88732 h 20.085937 c 3.046875,0 5.367188,0.855468 7.066407,2.4375 1.582031,1.710937 2.4375,4.265625 2.4375,7.546875 z m -7.675782,46.898437 H 24.971211 V -37.51232 h 21.070312 c 3.644532,0 6.691407,0.726562 9.246094,2.191406 2.566406,1.464844 3.785156,4.628906 3.785156,9.375 0,3.902344 -1.101562,6.820312 -3.175781,8.894531 -2.191406,2.074219 -5.238281,3.046875 -9.011719,3.046875 z m 89.159177,-51.152344 c -2.07422,0 -3.90234,0.726563 -5.23828,2.0625 -1.34765,1.464844 -2.07422,3.292969 -2.07422,5.367188 v 30.9375 c 0,4.992187 -1.10156,8.636719 -3.29297,10.957031 -2.1914,2.4375 -5.47265,3.65625 -9.98437,3.65625 -4.38281,0 -7.67578,-1.21875 -9.86719,-3.65625 -2.1914,-2.320312 -3.28125,-5.964844 -3.28125,-10.957031 v -30.9375 c 0,-2.074219 -0.73828,-3.902344 -2.07422,-5.367188 -1.335934,-1.335937 -3.164059,-2.0625 -5.238278,-2.0625 -2.074219,0 -3.890625,0.726563 -5.238281,2.0625 -1.335938,1.464844 -2.0625,3.292969 -2.0625,5.367188 v 30.9375 c 0,8.765625 2.425781,15.585937 7.183593,20.5781249 4.746094,4.9921875 11.683596,7.4296875 20.578126,7.4296875 8.89453,0 15.83203,-2.4375 20.70703,-7.4296875 4.74609,-4.9921879 7.18359,-11.8124999 7.18359,-20.5781249 v -30.9375 c 0,-2.074219 -0.72656,-3.902344 -2.07421,-5.367188 -1.33594,-1.335937 -3.16407,-2.0625 -5.22657,-2.0625 z m 71.49024,0 c -2.07422,0 -3.90235,0.726563 -5.23828,2.0625 -1.34766,1.464844 -2.07422,3.292969 -2.07422,5.367188 v 31.171875 c 0,4.628906 -1.10156,8.167969 -3.41016,10.605469 -2.30859,2.554687 -5.60156,3.773437 -9.86719,3.773437 -4.26562,0 -7.54687,-1.101562 -9.73828,-3.410156 -2.32031,-2.191406 -3.41015,-5.847656 -3.41015,-10.96875 v -31.171875 c 0,-2.074219 -0.73828,-3.902344 -2.07422,-5.367188 -1.33594,-1.335937 -3.16406,-2.0625 -5.23828,-2.0625 -2.07422,0 -3.89063,0.726563 -5.23828,2.0625 -1.33594,1.464844 -2.0625,3.292969 -2.0625,5.367188 v 35.554687 c 0,4.511719 0.84375,8.53125 2.67187,12.058594 1.82813,3.5390627 4.26563,6.3398439 7.55859,8.2851564 3.28125,2.07421879 6.9375,3.046875 11.20313,3.046875 8.88281,0 15.46875,-2.6835937 19.72266,-7.921875 v 1.21875 c 0,5.97656254 -1.33594,10.2304688 -4.01954,12.6679688 -2.80078,2.5546875 -7.05468,3.7734378 -12.78515,3.7734378 -1.69922,0 -3.28125,-0.234375 -4.875,-0.609375 -1.58203,-0.3632816 -3.16406,-0.7265628 -4.5,-1.3359378 -1.46485,-0.609375 -2.4375,-0.9726563 -3.04688,-1.21875 -0.72656,-0.2460938 -1.46484,-0.3632813 -2.30859,-0.3632813 -1.34766,0 -2.68359,0.4921875 -3.78516,1.3359375 -1.21875,0.9726563 -2.0625,2.3203126 -2.55468,4.1484376 -0.2461,0.726562 -0.36329,1.335937 -0.36329,1.945312 0,3.046875 1.94532,5.355469 5.96485,7.066407 1.82812,0.726562 4.14844,1.335937 7.0664,1.699218 2.80079,0.492188 5.60157,0.738282 8.40235,0.738282 9.5039,0 17.05078,-2.4375 22.78125,-7.3125 5.71875,-4.746094 8.51953,-12.4218753 8.51953,-23.0156253 V -57.727164 c 0,-2.074219 -0.72656,-3.902344 -2.07422,-5.367188 -1.33594,-1.335937 -3.16406,-2.0625 -5.22656,-2.0625 z m 132.37793,-1.21875 c -4.7461,0 -9.01172,1.335938 -12.78516,4.136719 -3.77344,2.800781 -6.70312,5.847656 -8.53125,9.257813 -2.80078,-8.894532 -9.375,-13.394532 -19.60547,-13.394532 -4.13672,0 -7.92187,0.972657 -11.20312,3.046875 -3.41016,2.0625 -6.21094,4.628907 -8.40235,7.546875 v -1.945312 c 0,-2.074219 -0.73828,-3.902344 -2.07422,-5.367188 -1.33593,-1.335937 -3.16406,-2.0625 -5.23828,-2.0625 -2.07422,0 -3.89062,0.726563 -5.23828,2.0625 -1.33594,1.464844 -2.0625,3.292969 -2.0625,5.367188 v 50.2968749 c 0,2.0742188 0.72656,3.9023438 2.0625,5.2382813 1.34766,1.46484374 3.16406,2.1914062375 5.23828,2.1914062375 2.07422,0 3.90235,-0.7265624975 5.23828,-2.1914062375 1.33594,-1.3359375 2.07422,-3.1640625 2.07422,-5.2382813 V -38.613883 c 0,-4.136719 1.33594,-7.546875 3.89063,-10.347656 2.5664,-2.683594 6.09375,-4.019531 10.59375,-4.019531 4.39453,0 7.42969,1.21875 9.25781,3.773437 1.71094,2.554688 2.56641,6.09375 2.56641,10.59375 v 31.1835939 c 0,2.0742188 0.72656,3.9023438 2.0625,5.2382813 1.34765,1.46484374 3.16406,2.1914062375 5.23828,2.1914062375 2.07422,0 3.90234,-0.7265624975 5.23828,-2.1914062375 1.33594,-1.3359375 2.07422,-3.1640625 2.07422,-5.2382813 V -38.613883 c 0,-4.136719 1.33594,-7.546875 3.89062,-10.347656 2.56641,-2.683594 6.09375,-4.019531 10.60547,-4.019531 4.38281,0 7.41797,1.21875 9.2461,3.773437 1.71093,2.554688 2.5664,6.09375 2.5664,10.59375 v 31.1835939 c 0,2.0742188 0.72656,3.9023438 2.0625,5.2382813 1.34766,1.46484374 3.17578,2.1914062375 5.23828,2.1914062375 2.07422,0 3.90235,-0.7265624975 5.23828,-2.1914062375 1.33594,-1.3359375 2.07422,-3.1640625 2.07422,-5.2382813 V -38.613883 c 0,-8.636719 -1.58203,-15.457031 -4.6289,-20.460937 -3.04688,-4.863282 -8.64844,-7.300782 -16.6875,-7.300782 z m 95.60156,32.273438 c 0,-5.730469 -1.46484,-11.085938 -4.26563,-16.078125 -2.80078,-4.992188 -6.57421,-8.894531 -11.32031,-11.8125 -4.74609,-2.917969 -9.86719,-4.382813 -15.22265,-4.382813 -5.48438,0 -10.59375,1.335938 -15.35157,4.136719 -4.74609,2.800781 -8.64843,6.949219 -11.5664,12.175781 -2.92969,5.238282 -4.38282,11.449219 -4.38282,18.398438 0,6.210937 1.33594,11.8125 4.13672,16.804687 2.80078,4.9921879 6.70313,9.0117192 11.8125,11.8125004 4.99219,2.80078129 10.96875,4.265625 17.78907,4.265625 3.89062,0 7.79296,-0.60937496 11.5664,-1.94531246 3.77344,-1.34765624 6.82031,-2.92968754 9.12891,-4.75781254 2.32031,-1.828125 3.41015,-3.7734375 3.41015,-5.9648434 0,-1.582032 -0.60937,-3.046875 -1.8164,-4.265625 -1.21875,-1.21875 -2.6836,-1.828125 -4.39453,-1.828125 -1.33594,0 -2.67188,0.375 -4.13672,1.101562 -0.36328,0.246094 -1.10156,0.726563 -2.19141,1.335938 -1.10156,0.738281 -2.68359,1.347656 -4.51172,1.957031 -1.8164,0.609375 -4.5,0.972656 -7.79297,0.972656 -4.38281,0 -8.27343,-1.347656 -11.8125,-4.148437 -3.52734,-2.671875 -5.71875,-6.445313 -6.6914,-11.203125 h 40.18359 c 1.95703,0 3.65625,-0.609375 5.1211,-1.828125 1.45312,-1.21875 2.1914,-2.800782 2.30859,-4.746094 z M 404.70559,-52.98107 c 3.77343,0 7.18359,1.21875 10.23046,3.65625 3.04688,2.4375 4.62891,5.355468 4.99219,8.765625 v 0.855468 h -31.91015 c 1.69921,-8.894531 7.30078,-13.277343 16.6875,-13.277343 z m 129.8291,-13.394532 c -2.07422,0 -3.90235,0.726563 -5.23828,2.0625 -1.34766,1.464844 -2.07422,3.292969 -2.07422,5.367188 v 0.117187 c -2.3086,-2.191406 -5.23828,-4.019531 -8.64844,-5.484375 -3.41016,-1.335937 -7.06641,-2.0625 -10.95703,-2.0625 -5.48438,0 -10.35938,1.464844 -14.85938,4.265625 -4.51171,2.917969 -8.15625,6.9375 -10.72265,12.046875 -2.55469,5.238282 -3.89063,11.085938 -3.89063,17.542969 0,6.457031 1.33594,12.304688 4.01953,17.414063 2.55469,5.1210934 6.21094,9.1406247 10.71094,11.9414059 4.51172,2.91796879 9.6211,4.3828125 15.22266,4.3828125 3.78515,0 7.42969,-0.85546871 10.96875,-2.5546875 3.41015,-1.5820312 6.08203,-3.65625 8.15625,-5.9765625 0.1289,2.0742188 0.85547,3.9023438 2.1914,5.2382813 1.34766,1.34765624 3.04688,2.0742187375 5.1211,2.0742187375 2.0625,0 3.89062,-0.7265624975 5.23828,-2.1914062375 1.33594,-1.3359375 2.0625,-3.1640625 2.0625,-5.2382813 V -58.945914 c 0,-2.191406 -0.72656,-4.019531 -2.0625,-5.367188 -1.34766,-1.335937 -3.17578,-2.0625 -5.23828,-2.0625 z m -24.60938,54.199219 c -5.23828,0 -9.49218,-1.957031 -12.78515,-5.847656 -3.29297,-3.773438 -4.99219,-8.648438 -4.99219,-14.496094 0,-5.847656 1.69922,-10.722656 4.99219,-14.613281 3.29297,-3.902344 7.54687,-5.847656 12.78515,-5.847656 5.23828,0 9.6211,1.945312 12.91407,5.847656 3.29296,3.890625 4.99218,8.765625 4.99218,14.613281 0,5.847656 -1.69922,10.722656 -4.99218,14.496094 -3.29297,3.890625 -7.67579,5.847656 -12.91407,5.847656 z m 110.21778,-54.199219 c -6.21094,0 -11.69532,1.464844 -16.5586,4.265625 -4.875,2.917969 -8.64844,6.9375 -11.33203,12.046875 -2.80078,5.121094 -4.13672,10.96875 -4.13672,17.542969 0,6.339844 1.33594,12.058594 3.89063,17.167969 2.5664,5.238281 6.33984,9.2578124 11.08593,12.1874999 4.7461,2.91796879 10.23047,4.3828125 16.44141,4.3828125 4.26563,0 8.15625,-0.49218746 11.94141,-1.58203121 3.77343,-0.97265629 6.6914,-2.32031249 9.01172,-4.01953129 2.30859,-1.7109375 3.41015,-3.5390625 3.41015,-5.484375 0,-2.0742189 -0.60937,-3.6562499 -1.71094,-4.9921879 -1.21875,-1.335937 -2.80078,-1.945312 -4.86328,-1.945312 -1.10156,0 -1.95703,0.117187 -2.68359,0.480469 -0.72656,0.375 -1.46484,0.738281 -2.32031,1.347656 -0.84375,0.609375 -1.58203,1.089844 -2.0625,1.335937 -1.95703,0.972657 -4.875,1.464844 -8.89453,1.464844 -5.48438,0 -9.86719,-1.957031 -13.39454,-5.847656 -3.53906,-3.773438 -5.23828,-8.648438 -5.23828,-14.496094 0,-6.09375 1.69922,-11.085937 5.23828,-14.859375 3.41016,-3.773437 8.15625,-5.601562 14.25,-5.601562 0.97266,0 2.3086,0.117187 3.89063,0.492187 1.58203,0.363281 2.68359,0.726563 3.53906,1.089844 0.72656,0.363281 1.45313,0.855469 2.3086,1.464844 0.73828,0.609375 1.46484,1.089843 2.32031,1.464843 0.84375,0.363282 1.82812,0.609375 3.16406,0.609375 1.69922,0 3.04688,-0.738281 4.13672,-2.074218 1.10156,-1.335938 1.58203,-2.800782 1.58203,-4.628907 0,-3.527343 -2.0625,-6.457031 -6.32812,-8.648437 -4.26563,-2.074219 -9.73829,-3.164063 -16.6875,-3.164063 z m 96.95214,33.855469 c 0,-6.457031 -1.46484,-12.304687 -4.39453,-17.542969 -2.91797,-5.109375 -6.9375,-9.128906 -11.92968,-12.046875 -5.1211,-2.800781 -10.72266,-4.265625 -16.80469,-4.265625 -6.21094,0 -11.8125,1.464844 -16.81641,4.265625 -4.99219,2.917969 -9.01172,6.9375 -11.92969,12.046875 -2.92968,5.238282 -4.38281,11.085938 -4.38281,17.542969 0,6.457031 1.45313,12.304688 4.38281,17.414063 2.91797,5.2382809 6.9375,9.2578122 11.92969,12.0585934 5.00391,2.80078129 10.60547,4.265625 16.81641,4.265625 6.08203,0 11.68359,-1.46484371 16.80469,-4.265625 4.99218,-2.8007812 9.01171,-6.8203125 11.92968,-12.0585934 2.92969,-5.109375 4.39453,-10.957032 4.39453,-17.414063 z m -14.625,0 c 0,4.019531 -0.84375,7.546875 -2.42578,10.59375 -1.71093,3.046875 -3.90234,5.484375 -6.70312,7.183594 -2.80078,1.710937 -5.96485,2.566406 -9.375,2.566406 -3.41016,0 -6.45703,-0.855469 -9.25781,-2.566406 -2.80079,-1.699219 -5.1211,-4.136719 -6.70313,-7.183594 -1.69922,-3.046875 -2.55469,-6.574219 -2.55469,-10.59375 0,-4.019531 0.85547,-7.546875 2.55469,-10.722656 1.58203,-3.035156 3.90234,-5.472656 6.70313,-7.183594 2.80078,-1.699219 5.84765,-2.554687 9.25781,-2.554687 3.41015,0 6.57422,0.855468 9.375,2.554687 2.80078,1.710938 4.99219,4.148438 6.70312,7.183594 1.58203,3.175781 2.42578,6.703125 2.42578,10.722656 z m 58.10157,-44.695312 c 1.33593,0 2.91797,0.246093 4.86328,0.726562 0.49219,0.128906 0.97265,0.128906 1.46484,0.246094 0.36328,0.117187 0.85547,0.117187 1.21875,0.117187 1.58203,0 3.04688,-0.609375 4.13672,-1.828125 1.10156,-1.207031 1.71094,-2.800781 1.71094,-4.746093 0,-2.554688 -1.10156,-4.382813 -3.29297,-5.601563 -2.30859,-1.21875 -4.875,-1.828125 -7.91016,-1.828125 -7.92187,0 -13.88672,1.945313 -18.03515,5.730469 -4.25391,3.773437 -6.32813,8.765625 -6.32813,14.859375 v 5.601562 h -6.57422 c -1.94531,0 -3.53906,0.609375 -4.875,1.828125 -1.33593,1.335938 -1.94531,2.917969 -1.94531,4.863282 0,1.957031 0.60938,3.539062 1.94531,4.757812 1.33594,1.335938 2.92969,1.945313 4.875,1.945313 h 6.57422 v 43.1132809 c 0,2.0742188 0.72656,3.9023438 2.07422,5.2382813 1.33594,1.46484374 3.16406,2.1914062375 5.23828,2.1914062375 2.0625,0 3.89063,-0.7265624975 5.23828,-2.1914062375 1.33594,-1.3359375 2.0625,-3.1640625 2.0625,-5.2382813 V -50.54357 h 11.08594 c 1.94531,0 3.52734,-0.609375 4.875,-1.945313 1.33594,-1.21875 1.94531,-2.800781 1.94531,-4.757812 0,-1.945313 -0.60937,-3.527344 -1.94531,-4.863282 -1.34766,-1.21875 -2.92969,-1.828125 -4.875,-1.828125 H 753.0132 v -5.730468 c 0,-1.828125 0.60938,-3.65625 1.71094,-5.238282 1.08984,-1.582031 3.04688,-2.308593 5.84766,-2.308593 z m 50.77734,0 c 1.34766,0 2.92969,0.246093 4.875,0.726562 0.49219,0.128906 0.97266,0.128906 1.46484,0.246094 0.36329,0.117187 0.85547,0.117187 1.21875,0.117187 1.58204,0 3.04688,-0.609375 4.13672,-1.828125 1.10157,-1.207031 1.71094,-2.800781 1.71094,-4.746093 0,-2.554688 -1.10156,-4.382813 -3.29297,-5.601563 -2.30859,-1.21875 -4.875,-1.828125 -7.91015,-1.828125 -7.92188,0 -13.88672,1.945313 -18.03516,5.730469 -4.25391,3.773437 -6.32813,8.765625 -6.32813,14.859375 v 5.601562 h -6.57421 c -1.95704,0 -3.53907,0.609375 -4.875,1.828125 -1.33594,1.335938 -1.94532,2.917969 -1.94532,4.863282 0,1.957031 0.60938,3.539062 1.94532,4.757812 1.33593,1.335938 2.91796,1.945313 4.875,1.945313 h 6.57421 v 43.1132809 c 0,2.0742188 0.72657,3.9023438 2.07422,5.2382813 1.33594,1.46484374 3.16407,2.1914062375 5.22657,2.1914062375 2.07421,0 3.90234,-0.7265624975 5.23828,-2.1914062375 1.34765,-1.3359375 2.07422,-3.1640625 2.07422,-5.2382813 V -50.54357 h 11.08593 c 1.94532,0 3.52735,-0.609375 4.875,-1.945313 1.33594,-1.21875 1.94532,-2.800781 1.94532,-4.757812 0,-1.945313 -0.60938,-3.527344 -1.94532,-4.863282 -1.34765,-1.21875 -2.92968,-1.828125 -4.875,-1.828125 h -11.08593 v -5.730468 c 0,-1.828125 0.60937,-3.65625 1.71093,-5.238282 1.08985,-1.582031 3.03516,-2.308593 5.83594,-2.308593 z m 77.94727,43.113281 c 0,-5.730469 -1.46485,-11.085938 -4.26563,-16.078125 -2.80078,-4.992188 -6.57422,-8.894531 -11.32031,-11.8125 -4.74609,-2.917969 -9.86719,-4.382813 -15.22266,-4.382813 -5.48437,0 -10.59375,1.335938 -15.35156,4.136719 -4.74609,2.800781 -8.64844,6.949219 -11.56641,12.175781 -2.92968,5.238282 -4.38281,11.449219 -4.38281,18.398438 0,6.210937 1.33594,11.8125 4.13672,16.804687 2.80078,4.9921879 6.70313,9.0117192 11.8125,11.8125004 4.99219,2.80078129 10.96875,4.265625 17.78906,4.265625 3.89063,0 7.79297,-0.60937496 11.56641,-1.94531246 3.77344,-1.34765624 6.82031,-2.92968754 9.12891,-4.75781254 2.32031,-1.828125 3.41015,-3.7734375 3.41015,-5.9648434 0,-1.582032 -0.60937,-3.046875 -1.8164,-4.265625 -1.21875,-1.21875 -2.6836,-1.828125 -4.39454,-1.828125 -1.33593,0 -2.67187,0.375 -4.13671,1.101562 -0.36329,0.246094 -1.10157,0.726563 -2.19141,1.335938 -1.10156,0.738281 -2.68359,1.347656 -4.51172,1.957031 -1.81641,0.609375 -4.5,0.972656 -7.79297,0.972656 -4.38281,0 -8.27344,-1.347656 -11.8125,-4.148437 -3.52734,-2.671875 -5.71875,-6.445313 -6.6914,-11.203125 h 40.18359 c 1.95703,0 3.65625,-0.609375 5.12109,-1.828125 1.45313,-1.21875 2.19141,-2.800782 2.3086,-4.746094 z m -30.8086,-18.878906 c 3.77344,0 7.1836,1.21875 10.23047,3.65625 3.04688,2.4375 4.62891,5.355468 4.99219,8.765625 v 0.855468 h -31.91016 c 1.69922,-8.894531 7.30078,-13.277343 16.6875,-13.277343 z m 101.44336,18.878906 c 0,-5.730469 -1.46484,-11.085938 -4.26562,-16.078125 -2.80078,-4.992188 -6.57422,-8.894531 -11.32032,-11.8125 -4.74609,-2.917969 -9.86718,-4.382813 -15.22265,-4.382813 -5.48438,0 -10.59375,1.335938 -15.35156,4.136719 -4.7461,2.800781 -8.64844,6.949219 -11.56641,12.175781 -2.92969,5.238282 -4.38281,11.449219 -4.38281,18.398438 0,6.210937 1.33593,11.8125 4.13672,16.804687 2.80078,4.9921879 6.70312,9.0117192 11.8125,11.8125004 4.99218,2.80078129 10.96875,4.265625 17.78906,4.265625 3.89062,0 7.79297,-0.60937496 11.5664,-1.94531246 3.77344,-1.34765624 6.82032,-2.92968754 9.12891,-4.75781254 2.32031,-1.828125 3.41016,-3.7734375 3.41016,-5.9648434 0,-1.582032 -0.60938,-3.046875 -1.81641,-4.265625 -1.21875,-1.21875 -2.68359,-1.828125 -4.39453,-1.828125 -1.33594,0 -2.67188,0.375 -4.13672,1.101562 -0.36328,0.246094 -1.10156,0.726563 -2.19141,1.335938 -1.10156,0.738281 -2.68359,1.347656 -4.51171,1.957031 -1.81641,0.609375 -4.5,0.972656 -7.79297,0.972656 -4.38282,0 -8.27344,-1.347656 -11.8125,-4.148437 -3.52735,-2.671875 -5.71875,-6.445313 -6.69141,-11.203125 h 40.18359 c 1.95704,0 3.65625,-0.609375 5.1211,-1.828125 1.45312,-1.21875 2.1914,-2.800782 2.30859,-4.746094 z M 929.12258,-52.98107 c 3.77344,0 7.18359,1.21875 10.23047,3.65625 3.04687,2.4375 4.6289,5.355468 4.99218,8.765625 v 0.855468 h -31.91015 c 1.69922,-8.894531 7.30078,-13.277343 16.6875,-13.277343 z m 0,0"
         style="fill:#ffffff;fill-opacity:1;fill-rule:nonzero;stroke:none"
         aria-label="Buy me a coﬀee"
         transform="matrix(1.3333333,0,0,1.3333333,580.69333,241.14533)" />
      <path
         id="path4"
         d="m 3463.94,1748.2 c -30.86,162.98 -118.6,264.51 -208.52,327.3 -92.99,64.92 -204.38,98.28 -317.78,98.28 H 1328.06 c -56,0 -77.44,-54.67 -77.66,-82.05 -0.02,-3.57 0.1,-17.86 0.1,-17.86 0,0 -2.64,-712.1 2.36,-1092.44 15.19,-224.539 240.17,-224.461 240.17,-224.461 0,0 734.51,2.152 1086.77,4.34 16.53,0.101 33.03,1.89 49.06,5.89 200.56,50.18 221.31,236.501 219.17,340.381 403.14,-22.4 687.57,262.07 615.91,640.62 m -452.87,-369.57 c -85.97,-10.75 -155.82,-2.68 -155.82,-2.68 v 526.44 h 105.79 c 69.91,0 137.36,-29.12 182.98,-82.1 32.11,-37.3 57.81,-89.8 57.81,-162.32 0,-177.27 -91.35,-247.11 -190.76,-279.34"
         style="fill:#ffffff;fill-opacity:1;fill-rule:nonzero;stroke:none"
         transform="matrix(0.13333333,0,0,-0.13333333,0,390.76)" />
      <path
         id="path5"
         d="m 2038.83,1052.27 c 17.5,-8.81 28.69,2.14 28.69,2.14 0,0 256.18,233.82 371.59,368.48 102.65,120.46 109.34,323.47 -66.94,399.32 -176.28,75.85 -321.32,-89.24 -321.32,-89.24 -125.78,138.34 -316.14,131.34 -404.18,37.72 -88.05,-93.62 -57.3,-254.3 8.38,-343.73 61.66,-83.95 332.67,-325.5 373.74,-366.35 0,0 3,-3.13 10.04,-8.34"
         style="fill:#f14255;fill-opacity:1;fill-rule:nonzero;stroke:none"
         transform="matrix(0.13333333,0,0,-0.13333333,0,390.76)" />
    </g>
  </g>
</svg>
