<?xml version="1.0" encoding="UTF-8" standalone="no"?>
<!-- Created with Inkscape (http://www.inkscape.org/) -->

<svg
   viewBox="0 0 132.29167 22.489583"
   version="1.1"
   id="svg1"
   sodipodi:docname="paypal-donate.svg"
   inkscape:version="1.4 (e7c3feb100, 2024-10-09)"
   xmlns:inkscape="http://www.inkscape.org/namespaces/inkscape"
   xmlns:sodipodi="http://sodipodi.sourceforge.net/DTD/sodipodi-0.dtd"
   xmlns="http://www.w3.org/2000/svg"
   xmlns:svg="http://www.w3.org/2000/svg">
  <sodipodi:namedview
     id="namedview1"
     pagecolor="#505050"
     bordercolor="#eeeeee"
     borderopacity="1"
     inkscape:showpageshadow="0"
     inkscape:pageopacity="0"
     inkscape:pagecheckerboard="0"
     inkscape:deskcolor="#505050"
     inkscape:zoom="10.325669"
     inkscape:cx="66.145836"
     inkscape:cy="11.282562"
     inkscape:window-width="1920"
     inkscape:window-height="1052"
     inkscape:window-x="0"
     inkscape:window-y="0"
     inkscape:window-maximized="1"
     inkscape:current-layer="g3" />
  <defs
     id="defs1" />
  <g
     id="layer1">
    <path
       style="fill:#ffd140;fill-opacity:1;stroke-width:0.794;stroke-dasharray:none"
       id="rect1"
       width="132.29167"
       height="22.489584"
       x="0"
       y="0"
       d="m 11.1125,0 h 110.06667 a 11.1125,11.1125 45 0 1 11.1125,11.1125 v 0.264584 a 11.1125,11.1125 135 0 1 -11.1125,11.1125 H 11.1125 A 11.1125,11.1125 45 0 1 0,11.377084 V 11.1125 A 11.1125,11.1125 135 0 1 11.1125,0 Z" />
    <g
       id="g2"
       transform="translate(5.6447247)">
      <g
         id="g3">
        <g
           id="g1"
           transform="translate(4.6572825e-8,-24.729536)">
          <path
             fill="#001c64"
             d="m 17.747549,32.798798 c 0.02831,-1.472406 -1.186656,-2.602706 -2.857235,-2.602706 h -3.454929 a 0.33813749,0.33813749 0 0 0 -0.333904,0.285485 l -1.3845648,8.650817 a 0.27463749,0.27463749 0 0 0 0.271198,0.3175 h 2.0470808 l -0.320145,2.003425 a 0.27463749,0.27463749 0 0 0 0.271462,0.3175 h 1.667404 c 0.0807,0 0.1524,-0.0291 0.213519,-0.08123 0.06112,-0.05239 0.07117,-0.124619 0.08361,-0.204258 l 0.489477,-2.879987 c 0.01243,-0.07937 0.05292,-0.182563 0.1143,-0.23495 0.06112,-0.05239 0.114565,-0.08096 0.194998,-0.08123 h 1.020763 c 1.635918,0 3.024187,-1.162579 3.277922,-2.779977 0.179388,-1.148292 -0.312737,-2.192602 -1.300691,-2.710392 z"
             id="path1"
             style="stroke-width:0.264583" />
          <path
             fill="#0070e0"
             d="m 12.478108,36.259548 -0.509852,3.233209 -0.320146,2.027766 a 0.27463749,0.27463749 0 0 0 0.271462,0.3175 h 1.764771 a 0.33813749,0.33813749 0 0 0 0.33364,-0.285485 l 0.465137,-2.947459 a 0.33787291,0.33787291 0 0 1 0.33364,-0.285221 h 1.039019 c 1.635918,0 3.023922,-1.19327 3.277658,-2.810668 0.179916,-1.148027 -0.397934,-2.192338 -1.385888,-2.710392 -0.0026,0.122238 -0.01323,0.244211 -0.03201,0.365125 -0.25374,1.617133 -1.642008,2.810669 -3.277927,2.810669 h -1.625865 a 0.33787291,0.33787291 0 0 0 -0.333639,0.284956 z"
             id="path2"
             style="stroke-width:0.264583" />
          <path
             fill="#003087"
             d="M 11.967991,39.492757 H 9.9148252 a 0.27437291,0.27437291 0 0 1 -0.271198,-0.3175 l 1.3842998,-8.779405 a 0.33787291,0.33787291 0 0 1 0.333904,-0.285221 h 3.528748 c 1.670314,0 2.885281,1.215761 2.85697,2.688167 -0.41566,-0.218017 -0.904081,-0.342635 -1.439333,-0.342635 h -2.941902 a 0.33813749,0.33813749 0 0 0 -0.33364,0.285221 l -0.554302,3.518164 -0.510645,3.233209 z"
             id="path3"
             style="stroke-width:0.264583" />
        </g>
        <path
           style="font-weight:600;font-size:9.81907px;line-height:1;font-family:'PayPal Sans Small Medium';-inkscape-font-specification:'PayPal Sans Small Medium,  Semi-Bold';fill:#003087;stroke-width:2.45553"
           d="M 26.509512,14.382148 H 24.476657 V 7.669893 h 2.032855 q 1.467107,0 2.301344,0.891771 0.834238,0.891771 0.834238,2.464356 0,1.572586 -0.834238,2.464357 -0.834237,0.891771 -2.301344,0.891771 z M 25.819108,8.7726206 V 13.27942 h 0.680815 q 0.872593,0 1.323273,-0.575336 0.460269,-0.584925 0.460269,-1.678064 0,-1.1123161 -0.45068,-1.6780633 -0.45068,-0.5753361 -1.332862,-0.5753361 z m 6.999923,1.6109414 q -0.498624,0 -0.786292,0.402735 -0.27808,0.402735 -0.27808,1.121905 0,0.719171 0.27808,1.121906 0.287668,0.402735 0.786292,0.402735 0.498625,0 0.776704,-0.402735 0.287668,-0.402735 0.287668,-1.121906 0,-0.71917 -0.287668,-1.121905 -0.278079,-0.402735 -0.776704,-0.402735 z m 0,-1.0643721 q 1.006838,0 1.678064,0.7383481 0.680814,0.728759 0.680814,1.850664 0,1.112317 -0.680814,1.850665 -0.671226,0.728759 -1.678064,0.728759 -1.006838,0 -1.687652,-0.728759 -0.671226,-0.738348 -0.671226,-1.850665 0,-1.121905 0.671226,-1.850664 0.680814,-0.7383481 1.687652,-0.7383481 z m 4.842413,0.5753361 q 0.335612,-0.2780791 0.699992,-0.4219131 0.373968,-0.153423 0.757526,-0.153423 0.690403,0 1.093138,0.4698578 0.402736,0.4602693 0.402736,1.2465613 v 3.346539 h -1.294507 v -3.116404 q 0,-0.45068 -0.191778,-0.661637 -0.18219,-0.220545 -0.556159,-0.220545 -0.230134,0 -0.45068,0.07671 -0.220545,0.07671 -0.460268,0.239724 v 3.682151 H 36.366937 V 9.4246682 h 1.294507 V 9.894526 Z m 5.379392,3.078048 q 0,0.26849 0.163012,0.421913 0.172601,0.153423 0.460269,0.153423 0.258901,0 0.479447,-0.07671 0.230134,-0.07671 0.45068,-0.239723 v -1.073961 q -0.786293,0.01918 -1.16985,0.220545 -0.383558,0.201368 -0.383558,0.594514 z m 2.934215,1.409574 H 44.7189 l -0.105478,-0.489036 q -0.326024,0.297257 -0.671226,0.45068 -0.345201,0.143834 -0.728759,0.143834 -0.613692,0 -1.016427,-0.393146 -0.393146,-0.393147 -0.393146,-1.006838 0,-0.795882 0.728759,-1.246562 0.728759,-0.45068 2.061621,-0.469858 v -0.191779 q 0,-0.393146 -0.220546,-0.584925 -0.210956,-0.191778 -0.652047,-0.191778 -0.373969,0 -0.795882,0.115067 -0.412324,0.115067 -0.834237,0.326024 V 9.7890477 q 0.345201,-0.2109566 0.853415,-0.3356127 0.508214,-0.1342451 0.968483,-0.1342451 0.939715,0 1.447929,0.4986246 0.508213,0.4890355 0.508213,1.3808065 v 2.07121 q 0,0.335613 0.01918,0.594514 0.02877,0.258902 0.0863,0.517803 z M 46.847644,10.40274 V 9.4246682 h 0.709582 V 8.2452291 h 1.284917 v 1.1794391 h 1.476696 V 10.40274 h -1.476696 v 2.358878 q 0,0.326024 0.163012,0.498624 0.172601,0.163012 0.489035,0.163012 0.210957,0 0.421914,-0.04794 0.210956,-0.04795 0.527391,-0.18219 v 1.006838 q -0.297257,0.153423 -0.604103,0.220546 -0.306846,0.06712 -0.661636,0.06712 -0.776704,0 -1.198617,-0.421913 Q 47.557226,13.6438 47.557226,12.857507 V 10.40274 Z m 5.964317,2.617779 q 0.421914,0.421913 1.17944,0.421913 0.335612,0 0.642458,-0.07671 0.316435,-0.07671 0.671226,-0.239724 v 1.016427 q -0.345202,0.18219 -0.699993,0.258902 -0.35479,0.0863 -0.786292,0.0863 -1.16985,0 -1.889021,-0.709581 -0.709581,-0.709581 -0.709581,-1.879431 0,-1.112317 0.652048,-1.841076 0.652047,-0.7383481 1.658886,-0.7383481 1.064371,0 1.582174,0.7862931 0.517802,0.776703 0.36438,2.109565 h -3.058871 q 0.0863,0.498625 0.393146,0.805471 z m 0.699993,-2.70408 q -0.508214,0 -0.81506,0.412324 -0.210956,0.27808 -0.278079,0.690404 h 1.917787 q 0.02877,-0.489036 -0.191778,-0.795882 -0.220546,-0.306846 -0.63287,-0.306846 z m 10.250571,2.406823 0.891771,-3.2985938 h 1.246561 L 64.309094,14.382148 H 63.302256 L 62.36254,11.064376 h -0.02877 l -0.939715,3.317772 H 60.38722 L 58.795456,9.4246682 h 1.313684 l 0.90136,3.2985938 h 0.02877 l 0.863004,-3.2985938 h 0.939716 l 0.882182,3.2985938 z m 4.382145,1.658886 H 66.850164 V 9.4246682 H 68.14467 Z M 67.492623,8.5904308 q -0.354791,0 -0.584925,-0.2205455 -0.220546,-0.2301345 -0.220546,-0.5657472 0,-0.3356127 0.220546,-0.5561583 0.230134,-0.2301344 0.584925,-0.2301344 0.35479,0 0.575336,0.2301344 0.230134,0.2205456 0.230134,0.5561583 0,0.3356127 -0.230134,0.5657472 -0.220546,0.2205455 -0.575336,0.2205455 z M 69.161098,10.40274 V 9.4246682 h 0.709581 V 8.2452291 h 1.284918 v 1.1794391 h 1.476696 V 10.40274 h -1.476696 v 2.358878 q 0,0.326024 0.163011,0.498624 0.172601,0.163012 0.489036,0.163012 0.210957,0 0.421913,-0.04794 0.210957,-0.04795 0.527392,-0.18219 v 1.006838 q -0.297257,0.153423 -0.604103,0.220546 -0.306846,0.06712 -0.661637,0.06712 -0.776703,0 -1.198617,-0.421913 Q 69.870679,13.6438 69.870679,12.857507 V 10.40274 Z m 6.050616,-0.508214 q 0.335612,-0.2780791 0.699992,-0.4219131 0.373968,-0.153423 0.757526,-0.153423 0.690403,0 1.093138,0.4698578 0.402736,0.4602693 0.402736,1.2465613 v 3.346539 h -1.294507 v -3.116404 q 0,-0.45068 -0.191778,-0.661637 -0.18219,-0.220545 -0.556158,-0.220545 -0.230135,0 -0.45068,0.07671 -0.220546,0.07671 -0.460269,0.239724 v 3.682151 H 73.917207 V 7.075379 h 1.294507 v 2.819147 z m 12.07247,-0.076712 q 0,0.9780715 -0.661636,1.5629965 -0.661637,0.584925 -1.764364,0.584925 h -1.064372 v 2.416412 H 82.470539 V 7.669893 h 2.387645 q 1.102727,0 1.764364,0.5849251 0.661636,0.584925 0.661636,1.5629964 z m -1.371218,0 q 0,-0.4986246 -0.297257,-0.7671148 -0.287668,-0.2780791 -0.834237,-0.2780791 h -0.98766 v 2.0903874 h 0.98766 q 0.546569,0 0.834237,-0.26849 0.297257,-0.278079 0.297257,-0.7767035 z m 3.327362,3.1547595 q 0,0.26849 0.163012,0.421913 0.172601,0.153423 0.460269,0.153423 0.258901,0 0.479446,-0.07671 0.230135,-0.07671 0.45068,-0.239723 v -1.073961 q -0.786292,0.01918 -1.16985,0.220545 -0.383557,0.201368 -0.383557,0.594514 z m 2.934214,1.409574 h -1.25615 l -0.105479,-0.489036 q -0.326024,0.297257 -0.671225,0.45068 -0.345202,0.143834 -0.728759,0.143834 -0.613692,0 -1.016427,-0.393146 -0.393147,-0.393147 -0.393147,-1.006838 0,-0.795882 0.728759,-1.246562 0.728759,-0.45068 2.061621,-0.469858 v -0.191779 q 0,-0.393146 -0.220545,-0.584925 -0.210957,-0.191778 -0.652048,-0.191778 -0.373968,0 -0.795881,0.115067 -0.412325,0.115067 -0.834238,0.326024 V 9.7890477 q 0.345202,-0.2109566 0.853416,-0.3356127 0.508213,-0.1342451 0.968482,-0.1342451 0.939716,0 1.447929,0.4986246 0.508214,0.4890355 0.508214,1.3808065 v 2.07121 q 0,0.335613 0.01918,0.594514 0.02877,0.258902 0.0863,0.517803 z m 1.409572,2.147921 q -0.172601,0 -0.335612,-0.02877 -0.163012,-0.02877 -0.27808,-0.07671 v -0.997249 q 0.105479,0.03836 0.230135,0.05753 0.134245,0.01918 0.287668,0.01918 0.469858,0 0.786293,-0.26849 0.316434,-0.258901 0.575336,-0.872593 L 92.980011,9.4246682 h 1.342451 l 1.160261,3.4903728 h 0.02877 l 1.160261,-3.4903728 h 1.236973 l -1.869842,4.9574798 q -0.421913,1.121905 -1.006838,1.630119 -0.575337,0.517802 -1.44793,0.517802 z M 103.74839,9.8178145 q 0,0.9780715 -0.66164,1.5629965 -0.66164,0.584925 -1.76436,0.584925 h -1.06438 v 2.416412 H 98.934741 V 7.669893 h 2.387649 q 1.10272,0 1.76436,0.5849251 0.66164,0.584925 0.66164,1.5629964 z m -1.37122,0 q 0,-0.4986246 -0.29726,-0.7671148 -0.28767,-0.2780791 -0.83424,-0.2780791 h -0.98766 v 2.0903874 h 0.98766 q 0.54657,0 0.83424,-0.26849 0.29726,-0.278079 0.29726,-0.7767035 z m 3.32736,3.1547595 q 0,0.26849 0.16301,0.421913 0.1726,0.153423 0.46027,0.153423 0.2589,0 0.47944,-0.07671 0.23014,-0.07671 0.45068,-0.239723 v -1.073961 q -0.78629,0.01918 -1.16985,0.220545 -0.38355,0.201368 -0.38355,0.594514 z m 2.93421,1.409574 h -1.25615 l -0.10548,-0.489036 q -0.32602,0.297257 -0.67122,0.45068 -0.3452,0.143834 -0.72876,0.143834 -0.61369,0 -1.01643,-0.393146 -0.39315,-0.393147 -0.39315,-1.006838 0,-0.795882 0.72876,-1.246562 0.72876,-0.45068 2.06162,-0.469858 v -0.191779 q 0,-0.393146 -0.22054,-0.584925 -0.21096,-0.191778 -0.65205,-0.191778 -0.37397,0 -0.79588,0.115067 -0.41232,0.115067 -0.83424,0.326024 V 9.7890477 q 0.3452,-0.2109566 0.85342,-0.3356127 0.50821,-0.1342451 0.96848,-0.1342451 0.93972,0 1.44793,0.4986246 0.50821,0.4890355 0.50821,1.3808065 v 2.07121 q 0,0.335613 0.0192,0.594514 0.0288,0.258902 0.0863,0.517803 z m 2.72326,0 h -1.2945 V 7.075379 h 1.2945 z"
           id="text1"
           aria-label="Donate with PayPal" />
      </g>
    </g>
  </g>
</svg>
