<?xml version="1.0" encoding="UTF-8" standalone="no"?>
<!-- Created with Inkscape (http://www.inkscape.org/) -->

<svg
   viewBox="0 0 132.29167 22.489583"
   version="1.1"
   id="svg1"
   xmlns="http://www.w3.org/2000/svg"
   xmlns:svg="http://www.w3.org/2000/svg">
  <defs
     id="defs1" />
  <g
     id="layer1">
    <path
       style="fill:#ffd140;fill-opacity:1;stroke-width:0.794;stroke-dasharray:none"
       id="rect1"
       width="132.29167"
       height="22.489584"
       x="0"
       y="0"
       d="m 11.1125,0 h 110.06667 a 11.1125,11.1125 45 0 1 11.1125,11.1125 v 0.264584 a 11.1125,11.1125 135 0 1 -11.1125,11.1125 H 11.1125 A 11.1125,11.1125 45 0 1 0,11.377084 V 11.1125 A 11.1125,11.1125 135 0 1 11.1125,0 Z" />
    <g
       id="g2"
       transform="translate(5.6447247)">
      <g
         id="g3">
        <g
           id="g1"
           transform="translate(4.6572825e-8,-24.729536)">
          <path
             fill="#001c64"
             d="m 17.747549,32.798798 c 0.02831,-1.472406 -1.186656,-2.602706 -2.857235,-2.602706 h -3.454929 a 0.33813749,0.33813749 0 0 0 -0.333904,0.285485 l -1.3845648,8.650817 a 0.27463749,0.27463749 0 0 0 0.271198,0.3175 h 2.0470808 l -0.320145,2.003425 a 0.27463749,0.27463749 0 0 0 0.271462,0.3175 h 1.667404 c 0.0807,0 0.1524,-0.0291 0.213519,-0.08123 0.06112,-0.05239 0.07117,-0.124619 0.08361,-0.204258 l 0.489477,-2.879987 c 0.01243,-0.07937 0.05292,-0.182563 0.1143,-0.23495 0.06112,-0.05239 0.114565,-0.08096 0.194998,-0.08123 h 1.020763 c 1.635918,0 3.024187,-1.162579 3.277922,-2.779977 0.179388,-1.148292 -0.312737,-2.192602 -1.300691,-2.710392 z"
             id="path1"
             style="stroke-width:0.264583" />
          <path
             fill="#0070e0"
             d="m 12.478108,36.259548 -0.509852,3.233209 -0.320146,2.027766 a 0.27463749,0.27463749 0 0 0 0.271462,0.3175 h 1.764771 a 0.33813749,0.33813749 0 0 0 0.33364,-0.285485 l 0.465137,-2.947459 a 0.33787291,0.33787291 0 0 1 0.33364,-0.285221 h 1.039019 c 1.635918,0 3.023922,-1.19327 3.277658,-2.810668 0.179916,-1.148027 -0.397934,-2.192338 -1.385888,-2.710392 -0.0026,0.122238 -0.01323,0.244211 -0.03201,0.365125 -0.25374,1.617133 -1.642008,2.810669 -3.277927,2.810669 h -1.625865 a 0.33787291,0.33787291 0 0 0 -0.333639,0.284956 z"
             id="path2"
             style="stroke-width:0.264583" />
          <path
             fill="#003087"
             d="M 11.967991,39.492757 H 9.9148252 a 0.27437291,0.27437291 0 0 1 -0.271198,-0.3175 l 1.3842998,-8.779405 a 0.33787291,0.33787291 0 0 1 0.333904,-0.285221 h 3.528748 c 1.670314,0 2.885281,1.215761 2.85697,2.688167 -0.41566,-0.218017 -0.904081,-0.342635 -1.439333,-0.342635 h -2.941902 a 0.33813749,0.33813749 0 0 0 -0.33364,0.285221 l -0.554302,3.518164 -0.510645,3.233209 z"
             id="path3"
             style="stroke-width:0.264583" />
        </g>
        <text
           xml:space="preserve"
           style="font-size:9.81907px;line-height:1;font-family:Roboto;-inkscape-font-specification:Roboto;text-align:start;text-decoration-color:#000000;writing-mode:lr-tb;direction:ltr;text-anchor:start;fill:#003087;fill-opacity:1;stroke-width:2.45553;stroke-dasharray:none"
           x="23.613653"
           y="14.382148"
           id="text1"><tspan
             id="tspan1"
             style="font-style:normal;font-variant:normal;font-weight:600;font-stretch:normal;font-family:'PayPal Sans Small Medium';-inkscape-font-specification:'PayPal Sans Small Medium,  Semi-Bold';fill:#003087;fill-opacity:1;stroke-width:2.45553"
             x="23.613653"
             y="14.382148">Donate with PayPal</tspan></text>
      </g>
    </g>
  </g>
</svg>
