<?xml version="1.0" encoding="UTF-8" standalone="no"?>
<!-- Created with Inkscape (http://www.inkscape.org/) -->

<svg
   viewBox="0 0 264.58335 264.58335"
   version="1.1"
   id="svg1"
   xmlns="http://www.w3.org/2000/svg"
   xmlns:svg="http://www.w3.org/2000/svg">
  <defs
     id="defs1" />
  <g
     id="layer1">
    <circle
       style="fill:#fcfcfc;fill-opacity:1;stroke:none;stroke-width:0.79375;stroke-linecap:round;stroke-linejoin:round;paint-order:stroke fill markers"
       id="path1"
       cx="132.29167"
       cy="132.29167"
       r="132.29167" />
    <circle
       style="fill:#000000;fill-opacity:1;stroke:none;stroke-width:0.674688;stroke-linecap:round;stroke-linejoin:round;paint-order:stroke fill markers"
       id="circle1"
       cx="132.29166"
       cy="132.29166"
       r="112.44791" />
  </g>
  <g
     id="layer2">
    <path
       style="display:inline;fill:#ffffff;fill-opacity:1;stroke:none;stroke-width:6.61458;stroke-linecap:butt;stroke-linejoin:round;stroke-dasharray:none;stroke-opacity:1;paint-order:stroke fill markers"
       d="m 132.29166,76.96201 h -6.86664 c -8.31191,0 -6.5055,-27.191121 -31.71229,-31.398352 -23.506387,-3.923419 -39.570712,25.615399 -39.304111,45.70793 0.317165,23.903422 9.425749,39.127622 14.803897,47.004412 2.98435,4.37085 2.807691,9.53984 -4.398252,12.57545 -5.779989,2.43492 -9.565501,2.09299 -11.174753,4.84506 -2.548654,4.35858 8.585494,12.01057 17.095862,12.0449 -9.242366,5.96262 -10.144333,9.84726 -15.662196,16.69265 28.355363,13.67043 52.941893,11.01337 76.931763,11.24059 -25.1477,-2.06492 -48.224873,-2.53843 -65.058774,-13.93043 -2.825569,-3.1704 8.361239,-12.18382 19.675826,-18.01593 C 71.535843,164.0642 65.700825,162.86744 59.690928,158.09181 73.929385,156.0664 82.851501,146.14067 77.925234,137.96135 66.718787,122.07839 63.965546,115.74682 62.428408,95.390149 61.019873,76.736582 71.394471,52.240387 91.477341,52.603387 c 20.082869,0.363 20.857589,22.888352 30.296669,24.26059 9.43907,1.372238 10.51765,0.09803 10.51765,0.09803 z m 0,0 h 6.86664 c 8.31191,0 6.5055,-27.191121 31.71229,-31.398352 23.50639,-3.923419 39.57071,25.615399 39.30411,45.70793 -0.31716,23.903422 -9.42575,39.127622 -14.8039,47.004412 -2.98435,4.37085 -2.80769,9.53984 4.39826,12.57545 5.77998,2.43492 9.5655,2.09299 11.17475,4.84506 2.54865,4.35858 -8.5855,12.01057 -17.09586,12.0449 9.24236,5.96262 10.14433,9.84726 15.66219,16.69265 -28.35536,13.67043 -52.94189,11.01337 -76.93176,11.24059 25.1477,-2.06492 48.22487,-2.53843 65.05877,-13.93043 2.82557,-3.1704 -8.36124,-12.18382 -19.67582,-18.01593 15.08615,0.33591 20.92116,-0.86085 26.93106,-5.63648 -14.23845,-2.02541 -23.16057,-11.95114 -18.2343,-20.13046 11.20644,-15.88296 13.95968,-22.21453 15.49682,-42.571201 1.40854,-18.653567 -8.96606,-43.149762 -29.04893,-42.786762 -20.08287,0.363 -20.85759,22.888352 -30.29667,24.26059 -9.43907,1.372238 -10.51765,0.09803 -10.51765,0.09803 z"
       id="path7"
       transform="matrix(0.91873998,0,0,0.88825308,10.750019,7.6442125)" />
    <path
       style="display:inline;fill:#ffffff;fill-opacity:1;stroke:none;stroke-width:5.29167;stroke-linecap:butt;stroke-linejoin:round;stroke-dasharray:none;stroke-opacity:1;paint-order:markers stroke fill"
       d="m 78.238857,122.65678 c -4.113789,-0.48048 -9.275833,-11.96356 -9.64063,-22.52266 -0.386743,-11.194309 2.696255,-22.685323 12.000994,-23.102257 10.360028,-0.464219 13.74302,12.409316 12.826361,20.205822 -0.379188,3.225125 -3.712996,5.657125 -7.753347,11.897325 -4.040352,6.24021 -3.769641,13.94968 -7.433378,13.52177 z m 99.766903,0 c 4.11379,-0.48048 9.27584,-11.96356 9.64063,-22.52266 0.38675,-11.194309 -2.69625,-22.685323 -12.00099,-23.102257 -10.36003,-0.464219 -13.74302,12.409316 -12.82636,20.205822 0.37919,3.225125 3.71299,5.657125 7.75334,11.897325 4.04036,6.24021 3.76965,13.94968 7.43338,13.52177 z"
       id="path12"
       transform="translate(4.1693461,-1.7828174)" />
    <path
       id="path9"
       style="display:inline;fill:#ffffff;fill-opacity:1;stroke:none;stroke-width:6.8679;stroke-linecap:round;stroke-linejoin:round;stroke-dasharray:none;stroke-opacity:1;paint-order:stroke fill markers"
       d="m 80.072439,156.1382 c -7.726792,1.25511 -32.163897,5.7898 -29.7623,26.54822 2.401597,20.75843 25.678117,48.67384 77.732611,49.02212 85.42183,0.57154 100.6266,-69.92613 93.37832,-73.50458 -3.99536,-1.97249 -20.79235,12.28402 -47.04142,12.1273 -26.24906,-0.15671 -36.55051,-8.96763 -65.56324,-8.66733 -29.012759,0.3003 -37.640345,7.03303 -37.640345,7.03303 1.496789,-5.76653 5.147604,-9.36709 8.896374,-12.55876 z m -14.968275,8.87784 c -18.552679,17.28141 5.238636,40.39752 29.48282,49.70304 24.244206,9.30553 73.635476,12.54674 113.820416,-22.40854 C 176.68317,230.5342 116.08189,230.38826 89.607572,219.16502 63.133275,207.94178 43.862855,177.18067 65.104164,165.01604 Z" />
    <path
       style="display:inline;fill:#ffffff;fill-opacity:1;stroke:#020202;stroke-width:5.29167;stroke-linecap:round;stroke-linejoin:round;stroke-dasharray:none;stroke-opacity:1;paint-order:markers stroke fill"
       d="m 150.91671,65.016198 c -7.13334,-7.579645 0.0279,-15.133096 -2.82652,-17.436087 -2.85444,-2.30299 -12.03363,4.902914 -11.44271,12.004002 0,0 -10.42879,-12.204874 -26.30918,-12.299027 -8.77401,-0.05202 -22.91903,11.453498 -34.254264,13.179257 -11.335233,1.725758 -22.580805,-3.603693 -25.01703,-0.549845 -2.763972,3.464686 6.15566,23.846588 23.529306,30.308817 17.373645,6.462216 41.225138,3.390474 41.225138,3.390474 -2.17638,4.481273 -6.42644,4.541553 -5.17495,6.607661 1.2515,2.06613 15.41173,-1.041064 29.56271,-9.000956 -0.77515,5.203847 -8.54245,6.038454 -5.77715,8.119932 2.76529,2.081494 23.02703,-3.216922 20.26582,-16.849598 10.92177,1.074785 18.88997,-14.787075 16.62941,-17.62055 -2.26055,-2.833474 -13.27723,7.725564 -20.41058,0.14592 z"
       id="path8" />
    <g
       id="g3"
       transform="translate(1.631565,0.37815518)"
       style="display:inline">
      <path
         style="display:inline;fill:#ffffff;fill-opacity:1;stroke:none;stroke-width:0.79375;stroke-linecap:round;stroke-linejoin:round;paint-order:stroke fill markers"
         d="m 132.00494,145.20989 v 16.0949 c -6.8053,0 -16.38815,-8.21191 -13.20494,-12.44909 2.85499,-3.8003 7.23655,-3.64581 13.20494,-3.64581 z m 0,0 v 16.0949 c 6.8053,0 16.38815,-8.21191 13.20494,-12.44909 -2.85499,-3.8003 -7.23655,-3.64581 -13.20494,-3.64581 z"
         id="path3"
         transform="matrix(0.61291601,0,0,0.76543278,49.500454,32.569425)" />
      <g
         id="g2"
         transform="matrix(0.62641482,0,0,0.62641482,48.478254,52.296254)"
         style="display:inline">
        <ellipse
           style="fill:#ffffff;fill-opacity:1;stroke:#020202;stroke-width:8.44754;stroke-linecap:round;stroke-linejoin:round;stroke-dasharray:none;stroke-opacity:1;paint-order:stroke fill markers"
           id="path2"
           cx="164.2675"
           cy="106.3509"
           rx="29.712254"
           ry="40.90419" />
        <path
           id="ellipse2"
           style="fill:#ffffff;stroke:#020202;stroke-width:8.44754;stroke-linecap:round;stroke-linejoin:round;paint-order:stroke fill markers"
           d="m 127.83266,106.3509 c 0,22.59076 -13.30263,40.90419 -29.712253,40.90419 -16.409624,0 -29.712253,-18.31343 -29.712253,-40.90419 0,-9.060273 2.139726,-17.432537 5.761453,-24.211316 16.442357,17.65266 29.793973,20.321826 53.128873,16.449851 0.35061,2.512965 0.53418,5.107705 0.53418,7.761465 z" />
      </g>
      <path
         style="display:inline;fill:#ffffff;fill-opacity:1;stroke:#020202;stroke-width:5.29167;stroke-linecap:butt;stroke-linejoin:round;stroke-dasharray:none;stroke-opacity:1;paint-order:markers stroke fill"
         d="m 109.42747,98.376434 c 4.32598,2.276506 9.8996,1.012749 9.42682,4.584856 -0.47277,3.57209 -8.23504,5.34113 -13.85265,2.30061 -5.617604,-3.04053 -7.299044,-9.429463 -3.67176,-11.928512 3.62728,-2.499049 3.77161,2.766546 8.09759,5.043046 z"
         id="path10" />
      <path
         style="display:inline;fill:#ffffff;fill-opacity:1;stroke:#020202;stroke-width:5.29167;stroke-linecap:butt;stroke-linejoin:round;stroke-dasharray:none;stroke-opacity:1;paint-order:markers stroke fill"
         d="m 155.60966,83.78296 c -3.26815,-0.603001 -8.55763,1.456569 -9.24735,-2.768183 -0.68971,-4.224755 5.9914,-7.09148 12.14093,-5.278723 6.14954,1.812757 9.26056,6.19241 7.15849,9.510601 -2.10206,3.318192 -6.78392,-0.86069 -10.05207,-1.463692 z"
         id="path11" />
    </g>
  </g>
</svg>
